
<svg version="1" xmlns="http://www.w3.org/2000/svg" width="346.667" height="346.667" viewBox="0 0 260.000000 260.000000"><path d="M128.5 18.7c-3.3.4-13.9 2.1-17 2.7-14.4 3.1-32.3 11.9-45.1 22.2C48 58.3 35.6 77.8 29.3 101.9c-3.5 13.1-3.9 38.2-.8 51.6 3.8 16.6 10.6 31.2 20.5 44 8.1 10.5 25.7 24.3 38.5 30 19.8 8.9 30.7 11 56.5 11 14.5-.1 19.3-.5 27.9-2.4 21.2-4.6 38.5-12.4 55.9-25l6.2-4.5V111H136.3l-.1 21.5V154H178v26.1l-6.2 2.8c-8.5 3.8-15.1 5.3-25 5.4-11 .1-17.5-.9-24.9-3.9-17.9-7.3-29.6-21.4-33.8-40.6-4.6-21.4 1.2-42.9 15.5-57.3 13.4-13.6 32.7-18.6 53.7-13.9 10.5 2.3 27.5 10.9 31.7 15.9 2 2.4 3.5 1.8 7.3-2.8 2-2.3 9.4-11.3 16.6-19.9 7.2-8.7 13.1-16.1 13.1-16.6 0-1.6-15.7-12.5-24.3-17-9.1-4.7-26.5-10.7-34.1-11.7-2.7-.3-5.3-.8-5.7-1-.9-.6-29.4-1.2-33.4-.8z"/></svg>