<?xml version="1.0" encoding="iso-8859-1"?>
<!-- Generator: Adobe Illustrator 19.0.0, SVG Export Plug-In . SVG Version: 6.00 Build 0)  -->
<svg version="1.1" id="Capa_1" xmlns="http://www.w3.org/2000/svg" xmlns:xlink="http://www.w3.org/1999/xlink" x="0px" y="0px"
	 viewBox="0 0 512 512" style="enable-background:new 0 0 512 512;" xml:space="preserve">
<g>
	<g>
		<path d="M255.501,0.499c-81.448,0-147.711,66.264-147.711,147.711c0,50.449,25.429,95.065,64.137,121.724
			c-36.139,12.471-69.263,33.071-97.091,60.899C26.577,379.093,0,443.254,0,511.501h39.922
			c0-118.871,96.708-215.579,215.579-215.579c81.448,0,147.711-66.264,147.711-147.712S336.949,0.499,255.501,0.499z M255.501,256
			c-59.435,0-107.789-48.354-107.789-107.789S196.066,40.421,255.501,40.421S363.29,88.775,363.29,148.211S314.936,256,255.501,256z
			"/>
	</g>
</g>
<g>
	<g>
		<polygon points="428.164,387.743 428.164,303.906 388.242,303.906 388.242,387.743 304.405,387.743 304.405,427.665 
			388.242,427.665 388.242,511.501 428.164,511.501 428.164,427.665 512,427.665 512,387.743 		"/>
	</g>
</g>
<g>
</g>
<g>
</g>
<g>
</g>
<g>
</g>
<g>
</g>
<g>
</g>
<g>
</g>
<g>
</g>
<g>
</g>
<g>
</g>
<g>
</g>
<g>
</g>
<g>
</g>
<g>
</g>
<g>
</g>
</svg>
